<?xml version="1.0" encoding="utf-8"?>
<!-- Generator: Adobe Illustrator 18.1.1, SVG Export Plug-In . SVG Version: 6.00 Build 0)  -->
<svg version="1.1" id="Layer_1" xmlns="http://www.w3.org/2000/svg" xmlns:xlink="http://www.w3.org/1999/xlink" x="0px" y="0px"
	 viewBox="0 0 261.6 261.6" enable-background="new 0 0 261.6 261.6" xml:space="preserve">
<g>
	<path fill="#4CAAAB" d="M71.8,50.7l-1,0.3c1.7,29.5,2.4,57.7,2.4,96.6v100c17.4,8.6,36.9,13.4,57.6,13.4c21.1,0,41.1-5,58.7-14
		l-74-118.2C99.2,102.8,83.6,76.1,71.8,50.7z"/>
	<path fill="#93A089" d="M152.7,132c17.4,27.5,30.9,52.1,42,76.1l0.7-0.3c-2.8-31.3-3.5-59.8-3.5-96.3V15.8
		C173.8,6,152.9,0.5,130.8,0.5c-20.4,0-39.7,4.7-56.8,13h3.7L152.7,132z"/>
	<path fill="#1E506A" d="M0.5,130.8c0,38.9,17.1,73.9,44.2,97.8V33C17.6,56.9,0.5,91.9,0.5,130.8z"/>
	<path fill="#2A423C" d="M261.1,130.8c0-37.2-15.6-70.7-40.6-94.5v189C245.5,201.5,261.1,168,261.1,130.8z"/>
	<path fill="#CDDEC6" d="M191.9,14.9V111c0,36.6,0.7,65.2,3.5,96.6l-0.7,0.3c-11.2-24.1-24.8-48.8-42.2-76.4L77.2,10.7l-3.7,2
		C62.7,17.9,52.8,24.5,44,32.3v196.2c8.6,7.6,18.2,14.1,28.6,19.2V147.3c0-39.1-0.7-67.3-2.4-97l1-0.3
		c11.9,25.5,27.6,52.3,43.9,78.5l74.2,119.7c11.4-5.8,21.9-14.2,31.1-22.9V35.5C212,27.4,202.4,20.5,191.9,14.9z"/>
</g>
</svg>
